{
  "title": "Jurassic.World.2015.720p.HDRip.KORSUB.XviD.MP3-RARBG",
  "uid": 12111174,
  "size": 3728587036,
  "categoryP": "video",
  "categoryS": "movies",
  "magnet": "?xt=urn:btih:0b71f53ad780366c8129efb053bf2c8290f7651c&amp;dn=Jurassic.World.2015.720p.HDRip.KORSUB.XviD.MP3-RARBG&amp;tr=udp%3A%2F%2Ftracker.openbittorrent.com%3A80&amp;tr=udp%3A%2F%2Fopen.demonii.com%3A1337&amp;tr=udp%3A%2F%2Ftracker.coppersurfer.tk%3A6969&amp;tr=udp%3A%2F%2Fexodus.desync.com%3A6969",
  "seeders": 150,
  "leechers": 17,
  "uploader": "vickey1992",
  "files": 4,
  "time": 1436578520,
  "description": "Video\nID                                       : 0\nFormat                                   : MPEG-4 Visual\nFormat profile                           : Simple@L5\nFormat settings, BVOP                    : No\nFormat settings, QPel                    : No\nFormat settings, GMC                     : No warppoints\nFormat settings, Matrix                  : Default (H.263)\nCodec ID                                 : XVID\nCodec ID/Hint                            : XviD\nDuration                                 : 2h 4mn\nBit rate                                 : 3 800 Kbps\nWidth                                    : 1 280 pixels\nHeight                                   : 640 pixels\nDisplay aspect ratio                     : 2.000\nFrame rate                               : 29.970 fps\nColor space                              : YUV\nChroma subsampling                       : 4:2:0\nBit depth                                : 8 bits\nScan type                                : Progressive\nCompression mode                         : Lossy\nBits/(Pixel*Frame)                       : 0.155\nStream size                              : 3.29 GiB (95%)\nWriting library                          : Lavc56.13.100\n\nAudio\nID                                       : 1\nFormat                                   : MPEG Audio\nFormat version                           : Version 1\nFormat profile                           : Layer 3\nMode                                     : Joint stereo\nCodec ID                                 : 55\nCodec ID/Hint                            : MP3\nDuration                                 : 2h 4mn\nBit rate mode                            : Constant\nBit rate                                 : 192 Kbps\nChannel(s)                               : 2 channels\nSampling rate                            : 48.0 KHz\nCompression mode                         : Lossy\nStream size                              : 170 MiB (5%)\nAlignment                                : Aligned on interleaves\nInterleave, duration                     : 24 ms (0.72 video frame)\nInterleave, preload duration             : 504 ms",
  "parsed": {
    "xt": "urn:btih:0b71f53ad780366c8129efb053bf2c8290f7651c",
    "dn": "Jurassic.World.2015.720p.HDRip.KORSUB.XviD.MP3-RARBG",
    "tr": [
      "udp://exodus.desync.com:6969",
      "udp://open.demonii.com:1337",
      "udp://tracker.coppersurfer.tk:6969",
      "udp://tracker.openbittorrent.com:80"
    ],
    "infoHash": "0b71f53ad780366c8129efb053bf2c8290f7651c",
    "infoHashBuffer": {
      "type": "Buffer",
      "data": [
        11,
        113,
        245,
        58,
        215,
        128,
        54,
        108,
        129,
        41,
        239,
        176,
        83,
        191,
        44,
        130,
        144,
        247,
        101,
        28
      ]
    },
    "name": "Jurassic.World.2015.720p.HDRip.KORSUB.XviD.MP3-RARBG",
    "announce": [
      "udp://exodus.desync.com:6969",
      "udp://open.demonii.com:1337",
      "udp://tracker.coppersurfer.tk:6969",
      "udp://tracker.openbittorrent.com:80"
    ],
    "urlList": []
  },
  "previous": 4,
  "peers": 10,
  "last_updated": "2016-12-26T15:52:59.409Z"
}